<svg width="20" height="20" viewBox="0 0 20 20" fill="none" xmlns="http://www.w3.org/2000/svg"><path d="M17.0711 12.9289C15.9819 11.8398 14.6855 11.0335 13.2711 10.5454 14.786 9.50199 15.7812 7.75578 15.7812 5.78125 15.7812 2.59348 13.1878.0 10 0 6.81223.0 4.21875 2.59348 4.21875 5.78125 4.21875 7.75578 5.21402 9.50199 6.72898 10.5454 5.31453 11.0335 4.01813 11.8398 2.92895 12.9289 1.0402 14.8177.0 17.3289.0 20H1.5625C1.5625 15.3475 5.34754 11.5625 10 11.5625c4.6525.0 8.4375 3.785 8.4375 8.4375H20C20 17.3289 18.9598 14.8177 17.0711 12.9289zM10 10C7.67379 10 5.78125 8.1075 5.78125 5.78125 5.78125 3.455 7.67379 1.5625 10 1.5625c2.3262.0 4.2188 1.8925 4.2188 4.21875C14.2188 8.1075 12.3262 10 10 10z" fill="#e31f1a"/></svg>