<svg width="20" height="20" viewBox="0 0 20 20" fill="none" xmlns="http://www.w3.org/2000/svg"><path d="M9.99999 4.29932C7.95265 4.29932 6.28699 5.96498 6.28699 8.01232 6.28699 10.0597 7.95265 11.7253 9.99999 11.7253 12.0473 11.7253 13.713 10.0597 13.713 8.01232 13.713 5.96498 12.0474 4.29932 9.99999 4.29932zM9.99999 10.162C8.81468 10.162 7.85034 9.19763 7.85034 8.01232 7.85034 6.82701 8.81468 5.86267 9.99999 5.86267 11.1853 5.86267 12.1496 6.82701 12.1496 8.01232 12.1496 9.19763 11.1853 10.162 9.99999 10.162z" fill="#e31f1a"/><path d="M9.99998.0C5.58197.0 1.98767 3.59434 1.98767 8.01231V8.23379C1.98767 10.4682 3.26869 13.0719 5.79525 15.9726 7.62681 18.0754 9.43279 19.5416 9.50873 19.603L9.99998 20 10.4912 19.6031C10.5672 19.5417 12.3732 18.0754 14.2047 15.9726 16.7312 13.0719 18.0123 10.4682 18.0123 8.23383V8.01234C18.0123 3.59434 14.418.0 9.99998.0zM16.4489 8.23383C16.4489 12.0098 11.5836 16.5807 9.99998 17.9683 8.41587 16.5803 3.55103 12.0095 3.55103 8.23383V8.01234C3.55103 4.45641 6.44404 1.5634 9.99998 1.5634 13.5559 1.5634 16.4489 4.45641 16.4489 8.01234V8.23383z" fill="#e31f1a"/></svg>