<svg width="50" height="50" viewBox="0 0 50 50" fill="none" xmlns="http://www.w3.org/2000/svg"><path d="M41.627 37.1695C39.5637 37.1695 37.8851 35.4921 37.8851 33.4304 37.8851 31.3687 39.5637 29.6912 41.627 29.6912 43.6887 29.6912 45.3661 31.3687 45.3661 33.4304 45.3661 35.4921 43.6887 37.1695 41.627 37.1695zM41.627 31.6443C40.6405 31.6443 39.8382 32.4455 39.8382 33.4304 39.8382 34.4152 40.6406 35.2164 41.627 35.2164 42.6118 35.2164 43.413 34.4152 43.413 33.4304 43.413 32.4455 42.6118 31.6443 41.627 31.6443z" fill="#e31f1a"/><path d="M17.6846 16.708V9.82021H34.0588C37.1287 9.82021 39.6262 12.3165 39.6262 15.3848 39.6262 18.4547 37.1287 20.9521 34.0588 20.9521H27.3295C26.7902 20.9521 26.3529 21.3895 26.3529 21.9287 26.3529 22.468 26.7902 22.9053 27.3295 22.9053H34.0588C38.2056 22.9053 41.5793 19.5315 41.5793 15.3848 41.5793 11.2396 38.2056 7.86709 34.0588 7.86709H17.6846V.976562C17.6846.437305 17.2473.0 16.708.0H.976562C.437305.0.0.437305.0.976562V16.708C0 17.2473.437305 17.6846.976562 17.6846H16.708C17.2473 17.6846 17.6846 17.2473 17.6846 16.708zM7.01055 1.95312H10.674V5.65234L9.35605 4.84004C9.04209 4.64658 8.6458 4.64639 8.33164 4.83984L7.01064 5.65322V1.95312H7.01055zM15.7314 15.7314H1.95312V1.95312H5.05742V7.40146C5.05742 7.75527 5.24883 8.08145 5.55771 8.254 5.8667 8.42656 6.24492 8.41865 6.546 8.23291L8.84326 6.81826 11.1381 8.23271C11.2949 8.32939 11.4727 8.37793 11.6505 8.37793 11.8144 8.37793 11.9784 8.33672 12.1266 8.254 12.4355 8.08145 12.6271 7.75527 12.6271 7.40137V1.95312H15.7313V15.7314H15.7314z" fill="#e31f1a"/><path d="M45.9691 42.356C47.9671 39.7307 49.8143 37.2139 49.7758 33.4251 49.7732 28.9325 46.1186 25.2788 41.627 25.2788 37.1338 25.2788 33.478 28.933 33.4753 33.4256 33.4371 37.214 35.2844 39.7313 37.2839 42.356 35.3139 42.9066 33.962 43.817 33.4638 44.9245H9.11494C7.44932 44.9245 6.09424 43.5708 6.09424 41.9067 6.09424 40.2411 7.44932 38.886 9.11494 38.886H22.3606C25.1031 38.886 27.3344 36.656 27.3344 33.915 27.3344 31.1724 25.1031 28.9412 22.3606 28.9412H9.98135C8.31729 28.9412 6.96348 27.5874 6.96348 25.9233 6.96348 24.2593 8.31729 22.9055 9.98135 22.9055H18.56C19.0992 22.9055 19.5365 22.4682 19.5365 21.9289 19.5365 21.3896 19.0992 20.9523 18.56 20.9523H9.98135C7.24033 20.9523 5.01035 23.1823 5.01035 25.9233 5.01035 28.6643 7.24033 30.8943 9.98135 30.8943H22.3606C24.0262 30.8943 25.3813 32.2494 25.3813 33.915 25.3813 35.5791 24.0262 36.9329 22.3606 36.9329H9.11494C6.37236 36.9329 4.14111 39.1641 4.14111 41.9067 4.14111 44.6476 6.37236 46.8776 9.11494 46.8776H33.4625C33.8397 47.7226 34.7137 48.4596 36.0154 49.0088 37.5305 49.6479 39.5234 50 41.627 50 43.7294 50 45.7215 49.6479 47.2362 49.0087 49.0184 48.2563 50 47.1527 50 45.9009 50 44.3569 48.4915 43.0613 45.9691 42.356zM35.4283 33.4407C35.4284 33.4373 35.4284 33.4339 35.4284 33.4305 35.4284 30.0126 38.2091 27.2319 41.627 27.2319 45.0433 27.2319 47.8227 30.0126 47.8227 33.4305 47.8227 33.4339 47.8227 33.4373 47.8228 33.4407 47.8568 36.6545 46.1938 38.8378 44.2684 41.3656 44.0675 41.6293 42.1094 43.9637 42.1094 43.9637 41.9406 44.1587 41.7652 44.2724 41.6269 44.2766 41.4361 44.271 41.2415 44.0787 41.1432 43.9652 41.1432 43.9652 39.1886 41.6328 38.9888 41.3709 37.06 38.8412 35.3944 36.6567 35.4283 33.4407zM41.627 48.0469C37.4712 48.0469 35.2042 46.6292 35.2042 45.9009 35.2042 45.4044 36.2969 44.5108 38.6299 44.0408L39.6649 45.2417C40.3665 46.0523 41.1156 46.2264 41.6205 46.2297H41.6268C41.6268 46.2297 41.6311 46.2297 41.6331 46.2297 42.1367 46.2264 42.8843 46.0523 43.5867 45.2408L44.6229 44.0407C46.9546 44.5108 48.0467 45.4045 48.0467 45.9009 48.0469 46.6292 45.7809 48.0469 41.627 48.0469z" fill="#e31f1a"/><path d="M21.9681 21.9286C21.9681 22.4679 22.4054 22.9052 22.9446 22.9052H22.9474C23.4866 22.9052 23.9226 22.4679 23.9226 21.9286 23.9226 21.3894 23.4839 20.9521 22.9445 20.9521 22.4052 20.9521 21.9681 21.3893 21.9681 21.9286z" fill="#e31f1a"/></svg>