<svg width="50" height="50" viewBox="0 0 50 50" fill="none" xmlns="http://www.w3.org/2000/svg"><path d="M40.1652 19.5254H40.1738C40.7091 19.5254 41.1455 19.0938 41.1502 18.5573 41.1534 18.1788 41.1598 17.4188 41.1667 16.4832H41.5134C42.0527 16.4832 42.49 16.0459 42.49 15.5066 42.49 14.9672 42.0527 14.53 41.5134 14.53H41.1797C41.1947 12.0085 41.2032 9.24165 41.1715 8.86879 41.1081 8.1227 40.6644 7.51625 40.0412 7.32387 39.7458 7.23266 38.9823 7.11411 38.2753 7.98139 37.6855 8.70717 34.7635 13.9843 34.1839 15.0348 34.0169 15.3374 34.0222 15.7056 34.1979 16.0032 34.3735 16.3007 34.6933 16.4834 35.0388 16.4834H39.2134C39.2082 17.2126 39.2026 17.9131 39.1971 18.5406 39.1925 19.0798 39.6258 19.5208 40.1652 19.5254zM36.6976 14.5301C37.6779 12.7738 38.6436 11.0789 39.2394 10.0819 39.2425 11.1251 39.2363 12.7973 39.226 14.5301H36.6976z" fill="#e31f1a"/><path d="M30.4437 13.1028C28.8129 15.4317 27.8364 16.7107 27.3118 17.3978 26.6676 18.2417 26.4267 18.5575 26.5957 19.1108 26.6936 19.4309 26.9361 19.6773 27.261 19.7869 27.2642 19.788 27.2675 19.7891 27.2708 19.7901 27.3953 19.8307 27.5413 19.8783 29.4995 19.8783 30.2838 19.8783 31.3591 19.8706 32.8395 19.8519 33.3787 19.845 33.8104 19.4022 33.8035 18.863 33.7967 18.3237 33.352 17.8891 32.8147 17.8989 31.6231 17.9141 30.353 17.9233 29.3756 17.9233 29.3723 17.9233 29.3689 17.9233 29.3654 17.9233 29.9468 17.1522 30.8116 15.9823 32.0436 14.223 32.6877 13.3032 33.1074 12.4355 33.291 11.6442 33.3362 11.449 33.3661 11.2252 33.3661 11.0248 33.3661 9.03174 31.7446 7.41016 29.7515 7.41016 28.0283 7.41016 26.5369 8.63701 26.2051 10.3273 26.1012 10.8565 26.446 11.3698 26.9752 11.4737 27.5054 11.578 28.0177 11.2328 28.1216 10.7036 28.2741 9.92695 28.9596 9.36328 29.7515 9.36328 30.6496 9.36328 31.3836 10.0796 31.4121 10.9709L31.3776 11.2483C31.2439 11.7851 30.9299 12.4086 30.4437 13.1028z" fill="#e31f1a"/><path d="M49.6277 10.244C49.204 9.91025 48.59 9.9833 48.2563 10.4067L47.7494 11.0502C46.5652 4.76768 41.0373.0 34.4159.0 26.934.0 20.847 6.08701 20.847 13.5688 20.847 21.0508 26.934 27.1378 34.4159 27.1378 38.3211 27.1378 42.0391 25.4538 44.6168 22.5176 44.9726 22.1123 44.9325 21.4952 44.5272 21.1395 44.1219 20.7836 43.5049 20.8237 43.1491 21.2291 40.9422 23.7429 37.7592 25.1847 34.4159 25.1847 28.0109 25.1847 22.8001 19.9738 22.8001 13.5688 22.8001 7.16397 28.0109 1.95312 34.4159 1.95312 40.0787 1.95312 44.8072 6.02656 45.8271 11.397L45.0543 10.789C44.6303 10.4554 44.0165 10.5287 43.6829 10.9525 43.3494 11.3764 43.4227 11.9903 43.8466 12.3238L46.4043 14.3362C46.5833 14.477 46.7962 14.5454 47.0075 14.5454 47.2965 14.5454 47.5826 14.4177 47.7752 14.1731L49.7904 11.6154C50.1242 11.1919 50.0514 10.5778 49.6277 10.244z" fill="#e31f1a"/><path d="M37.148 29.3922H2.11152C.947168 29.3922.0 30.3394.0 31.5037v16.382C0 49.0515.947168 49.9999 2.11152 49.9999H37.1481C38.314 49.9999 39.2623 49.0515 39.2623 47.8857V44.0767C39.2623 43.5373 38.825 43.1001 38.2857 43.1001 37.7465 43.1001 37.3092 43.5373 37.3092 44.0767V47.8857C37.3092 47.9715 37.2339 48.0468 37.1481 48.0468H20.6077V31.3453H24.9245V37.3612C24.9245 37.7151 25.1159 38.0411 25.4249 38.2137 25.7338 38.3864 26.1119 38.3783 26.4132 38.1926L28.9573 36.6255 31.5041 38.1928C31.6607 38.2892 31.8383 38.3376 32.0159 38.3376 32.18 38.3376 32.344 38.2964 32.4923 38.2135 32.8012 38.0409 32.9925 37.7149 32.9925 37.3611V31.3452h4.1556C37.2355 31.3452 37.3092 31.4178 37.3092 31.5036V35.3043C37.3092 35.8437 37.7465 36.2809 38.2857 36.2809 38.825 36.2809 39.2623 35.8437 39.2623 35.3043V31.5036C39.2623 30.3394 38.3139 29.3922 37.148 29.3922zM8.22305 31.3453H12.3819V35.6126L10.8146 34.6472C10.5006 34.4539 10.1045 34.4538 9.79033 34.6472L8.22305 35.6126V31.3453zM18.6546 48.0468H2.11152C2.02715 48.0468 1.95312 47.9715 1.95312 47.8857V31.5037C1.95312 31.4194 2.02715 31.3453 2.11152 31.3453h4.1584V37.3612C6.26992 37.7151 6.46133 38.0411 6.77031 38.2137 7.0793 38.3863 7.45742 38.3782 7.75869 38.1926L10.3025 36.6257 12.8464 38.1926C13.0031 38.2892 13.1808 38.3376 13.3586 38.3376 13.5225 38.3376 13.6865 38.2964 13.8348 38.2136 14.1437 38.041 14.3352 37.7149 14.3352 37.3611V31.3452H18.6547V48.0468H18.6546zM31.0394 35.6135 29.4689 34.6471C29.1549 34.4539 28.7589 34.4539 28.445 34.6473L26.8776 35.6127V31.3454H31.0394V35.6135z" fill="#e31f1a"/><path d="M31.3848 40.2988H28.6857C28.1465 40.2988 27.7092 40.736 27.7092 41.2754 27.7092 41.8147 28.1465 42.252 28.6857 42.252H31.3848C31.924 42.252 32.3613 41.8147 32.3613 41.2754 32.3613 40.736 31.924 40.2988 31.3848 40.2988z" fill="#e31f1a"/><path d="M23.9966 46.1799H31.3848C31.9241 46.1799 32.3614 45.7427 32.3614 45.2034 32.3614 44.664 31.9241 44.2268 31.3848 44.2268H23.9966C23.4573 44.2268 23.0201 44.664 23.0201 45.2034 23.0201 45.7427 23.4573 46.1799 23.9966 46.1799z" fill="#e31f1a"/><path d="M23.9966 42.252H24.78C25.3194 42.252 25.7566 41.8147 25.7566 41.2754 25.7566 40.736 25.3194 40.2988 24.78 40.2988H23.9966C23.4573 40.2988 23.0201 40.736 23.0201 41.2754 23.0201 41.8147 23.4573 42.252 23.9966 42.252z" fill="#e31f1a"/><path d="M5.34198 42.252H6.12538C6.66473 42.252 7.10194 41.8147 7.10194 41.2754 7.10194 40.736 6.66473 40.2988 6.12538 40.2988H5.34198C4.80262 40.2988 4.36542 40.736 4.36542 41.2754 4.36542 41.8147 4.80262 42.252 5.34198 42.252z" fill="#e31f1a"/><path d="M12.7302 40.2988h-2.699C9.4918 40.2988 9.0546 40.736 9.0546 41.2754 9.0546 41.8147 9.4918 42.252 10.0312 42.252h2.699C13.2695 42.252 13.7067 41.8147 13.7067 41.2754 13.7067 40.736 13.2695 40.2988 12.7302 40.2988z" fill="#e31f1a"/><path d="M12.7302 44.2268H5.34198C4.80262 44.2268 4.36542 44.664 4.36542 45.2034 4.36542 45.7427 4.80262 46.1799 5.34198 46.1799H12.7302C13.2695 46.1799 13.7067 45.7427 13.7067 45.2034 13.7067 44.664 13.2695 44.2268 12.7302 44.2268z" fill="#e31f1a"/><path d="M38.2857 38.7127C37.7464 38.7127 37.3091 39.1499 37.3091 39.6893V39.6948C37.3091 40.2342 37.7464 40.6687 38.2857 40.6687 38.825 40.6687 39.2623 40.2287 39.2623 39.6894 39.2623 39.15 38.825 38.7127 38.2857 38.7127z" fill="#e31f1a"/></svg>