<svg width="50" height="50" viewBox="0 0 50 50" fill="none" xmlns="http://www.w3.org/2000/svg"><g clip-path="url(#clip0)"><path d="M36.2539.0H18.8675C17.4132.0 16.2301 1.18311 16.2301 2.6375V22.8038C16.0754 23.0143 15.8177 23.3546 15.5656 23.6877 14.6319 24.9212 13.2209 26.7854 12.3794 28.1102 10.72 30.7266 10.6879 33.3409 12.2724 36.8521 12.2835 36.8767 12.2956 36.9007 12.3087 36.9242 12.3087 36.9242 14.2925 40.5121 14.3776 40.6692 14.8785 41.5946 15.7168 43.1435 15.6636 44.3608 15.663 44.375 15.6628 44.3892 15.6628 44.4034v2.8872C15.6628 48.7846 16.8782 50 18.3721 50h8.8246C28.6907 50 29.9061 48.7846 29.9061 47.2906L29.8978 44.7609C29.8983 43.7871 30.0456 43.2741 30.2318 42.625 30.359 42.1817 30.5031 41.6793 30.6065 40.9985 30.6091 40.981 30.6114 40.9634 30.613 40.9456 30.7575 39.4462 30.3678 37.9982 29.9553 36.4653 29.7212 35.5954 29.4715 34.6671 29.2927 33.6402H36.254C37.7083 33.6402 38.8914 32.4571 38.8914 31.0027V21.2062C38.8914 20.667 38.4541 20.2297 37.9148 20.2297 37.3755 20.2297 36.9382 20.667 36.9382 21.2062V31.0026C36.9382 31.38 36.6312 31.687 36.254 31.687H33.9503V1.95312H36.2539C36.6311 1.95312 36.9381 2.26016 36.9381 2.6375V12.434C36.9381 12.9732 37.3754 13.4105 37.9147 13.4105 38.454 13.4105 38.8913 12.9732 38.8913 12.434V2.6375C38.8913 1.18311 37.7082.0 36.2539.0V0zM27.1966 48.0469H18.372C17.9621 48.0469 17.6158 47.7005 17.6158 47.2906V44.4232C17.6829 42.673 16.6897 40.8379 16.0953 39.7396 16.0139 39.5894 14.0363 36.0125 14.0363 36.0125 12.7377 33.1187 12.7364 31.1939 14.0284 29.1568 14.594 28.2664 15.4523 27.0909 16.2301 26.0512V31.0027C16.2301 32.4571 17.4132 33.6402 18.8675 33.6402H21.9988V36.8989C21.9988 37.4382 22.436 37.8755 22.9753 37.8755 23.5147 37.8755 23.9519 37.4382 23.9519 36.8989V26.6152C23.9519 25.7342 24.6686 25.0174 25.5497 25.0174 25.9783 25.0174 26.3827 25.1867 26.6883 25.4942 26.9886 25.7963 27.1527 26.1924 27.1502 26.6094 27.1481 26.944 27.143 29.1461 27.1039 30.1681 27.0692 31.072 27.1075 31.9128 27.1906 32.6977 27.1925 32.7546 27.2683 33.3331 27.3028 33.5597 27.4997 34.8523 27.8022 35.9809 28.0692 36.9728 28.4473 38.378 28.7744 39.593 28.6712 40.7322 28.5872 41.2746 28.474 41.669 28.3543 42.0861 28.1529 42.7882 27.9446 43.5142 27.9446 44.7659 27.9446 44.7693 27.9446 44.7728 27.9447 44.7761L27.9529 47.2904C27.9529 47.7005 27.6066 48.0469 27.1966 48.0469zM31.9971 31.6871H29.0678C29.0427 31.2258 29.1013 26.9531 29.1033 26.621 29.1088 25.68 28.7431 24.7908 28.0734 24.1172 27.3984 23.4382 26.502 23.0643 25.5496 23.0643 23.5917 23.0643 21.9987 24.6572 21.9987 26.6152V31.6871H18.8674C18.4901 31.6871 18.1832 31.3801 18.1832 31.0027V2.6375C18.1832 2.26016 18.4902 1.95312 18.8674 1.95312H31.9971V31.6871z" fill="#e31f1a"/><path d="M37.9147 15.845C37.3754 15.845 36.9381 16.2823 36.9381 16.8215V16.8243C36.9381 17.3635 37.3754 17.7995 37.9147 17.7995 38.4539 17.7995 38.8912 17.3608 38.8912 16.8214 38.8912 16.2821 38.4539 15.845 37.9147 15.845z" fill="#e31f1a"/></g><defs><clipPath id="clip0"><path d="M0 0h50v50H0z" fill="#fff"/></clipPath></defs></svg>