<svg width="28" height="30" viewBox="0 0 28 30" fill="none" xmlns="http://www.w3.org/2000/svg"><path d="M8.0061 19.7527h16.53C26.4105 19.7527 27.9396 18.2237 27.9396 16.3493V9.3945C27.9396 9.38833 27.9396 9.376 27.9396 9.36984 27.9396 9.35134 27.9396 9.33901 27.9396 9.32051 27.9396 9.30818 27.9396 9.29585 27.9334 9.28352 27.9334 9.27119 27.9272 9.25269 27.9272 9.24036 27.9272 9.22803 27.9211 9.2157 27.9211 9.20336 27.9149 9.19103 27.9149 9.1787 27.9087 9.1602 27.9026 9.14787 27.9026 9.13554 27.8964 9.12321 27.8902 9.11088 27.8902 9.09855 27.8841 9.08622 27.8779 9.07389 27.8717 9.06156 27.8656 9.04306 27.8594 9.03073 27.8532 9.0184 27.8471 9.01223 27.8409 8.9999 27.8347 8.98757 27.8286 8.97524 27.8224 8.9629 27.8162 8.95674 27.8101 8.94441 27.8039 8.93208 27.7916 8.91975 27.7854 8.90741 27.7792 8.89508 27.7731 8.88892 27.7608 8.87659 27.7546 8.86425 27.7423 8.85809 27.7361 8.84576 27.7299 8.83343 27.7176 8.82726 27.7114 8.81493 27.7053 8.8026 27.6929 8.79643 27.6868 8.79027 27.6744 8.77794 27.6683 8.77177 27.6559 8.75944 27.6436 8.75327 27.6374 8.74094 27.6251 8.73478 27.6128 8.72861 27.6004 8.71628 27.5881 8.71011 27.5758 8.70395 27.5696 8.69778 27.5573 8.69162 27.545 8.68545 27.5326 8.67929 27.5203 8.66695 27.508 8.66079 27.4956 8.65462 27.4833 8.64846 27.471 8.64229 27.4586 8.63613 27.4463 8.62996 27.434 8.6238 27.4216 8.61763 27.4093 8.61147 27.397 8.6053 27.3847 8.6053 27.3723 8.59913 27.36 8.59297 27.3415 8.5868 27.3292 8.5868 27.3168 8.5868 27.3045 8.58064 27.2983 8.58064 27.2798 8.57447 27.2675 8.57447 27.249 8.57447 27.2428 8.57447 27.2367 8.56831 27.2243 8.56831L6.27357 5.67663V2.75412C6.27357 2.7233 6.27357 2.69247 6.2674 2.66781 6.2674 2.66164 6.2674 2.65547 6.26123 2.64314 6.26123 2.62465 6.25507 2.60615 6.25507 2.58765 6.2489 2.56916 6.2489 2.55682 6.24274 2.53833 6.24274 2.526 6.23657 2.51983 6.23657 2.5075 6.23041 2.489 6.22424 2.47051 6.21808 2.45201 6.21808 2.44584 6.21191 2.43351 6.21191 2.42735 6.20574 2.40885 6.19958 2.39652 6.18725 2.37802 6.18108 2.37186 6.18108 2.35952 6.17492 2.35336 6.16875 2.34103 6.16258 2.3287 6.15025 2.31637 6.14409 2.30403 6.13792 2.29787 6.13176 2.28554 6.12559 2.27321 6.11943 2.26704 6.11326 2.25471 6.10709 2.24238 6.09476 2.23005 6.0886 2.21772 6.08243 2.21155 6.07627 2.20538 6.0701 2.19922 6.05777 2.18689 6.04544 2.17456 6.03311 2.16223 6.02694 2.15606 6.02078 2.14989 6.01461 2.14373 6.00228 2.1314 5.98995 2.11907 5.97145 2.10673 5.96528 2.10057 5.95295 2.0944 5.94679 2.08824 5.93446 2.07591 5.92213 2.06974 5.90979 2.05741 5.8913 2.04508 5.8728 2.03275 5.86047 2.02658 5.8543 2.02042 5.84814 2.02042 5.84197 2.01425 5.81731 2.00192 5.78648 1.98959 5.76182 1.97726L1.21776.0659141C.792329-.112889.305245.084411.126442.509839-.0523611.935267.144939 1.42235.570367 1.60115L4.60268 3.30287V7.07622 7.67429 12.2615 16.3616 21.5408C4.60268 23.2671 5.89746 24.6976 7.56835 24.9134 7.26623 25.4189 7.08743 26.0108 7.08743 26.6397 7.08743 28.4956 8.598 30 10.4477 30 12.2974 30 13.808 28.4894 13.808 26.6397 13.808 26.0232 13.6415 25.4374 13.3455 24.9442H20.8306C20.5346 25.4436 20.3682 26.0232 20.3682 26.6397 20.3682 28.4956 21.8788 30 23.7284 30 25.5781 30 27.0887 28.4894 27.0887 26.6397 27.0887 24.7901 25.5781 23.2795 23.7284 23.2795H8.0061C7.04427 23.2795 6.2674 22.4964 6.2674 21.5408V19.2842C6.77298 19.5801 7.37105 19.7527 8.0061 19.7527zM12.1494 26.6336C12.1494 27.5707 11.3849 28.3291 10.4539 28.3291 9.52285 28.3291 8.75831 27.5646 8.75831 26.6336 8.75831 25.7026 9.52285 24.938 10.4539 24.938 11.3849 24.938 12.1494 25.6964 12.1494 26.6336zm13.2807.0C25.4301 27.5707 24.6656 28.3291 23.7346 28.3291 22.8036 28.3291 22.0391 27.5646 22.0391 26.6336 22.0391 25.7026 22.8036 24.938 23.7346 24.938 24.6656 24.938 25.4301 25.6964 25.4301 26.6336zM24.5361 18.088H8.0061C7.04427 18.088 6.2674 17.305 6.2674 16.3493V12.2492 7.66196 7.35368L26.2748 10.1097V16.3432C26.2748 17.3112 25.4918 18.088 24.5361 18.088z" fill="#000"/></svg>