<svg width="20" height="20" viewBox="0 0 20 20" fill="none" xmlns="http://www.w3.org/2000/svg"><g clip-path="url(#clip0)"><path d="M18.6957 3.89557H17.2398C17.4319 3.59166 17.5586 3.25053 17.5947 2.88975 17.7102 1.73674 17.1029.703144 16.0691.244902 15.1189-.176309 14.0511-.00412126 13.2821.693301L11.4438 2.35932C11.0858 1.96775 10.5712 1.72166 10 1.72166 9.42781 1.72166 8.91234 1.96854 8.55426 2.36131L6.71363.693105C5.94344-.00431654 4.87602-.17584 3.92621.245137 2.8927.703418 2.28535 1.73736 2.40113 2.89033 2.43734 3.25084 2.56398 3.59182 2.75598 3.89557H1.30434C.583945 3.89557.0 4.47955.0 5.1999V7.15643C0 7.51658.291992 7.80861.652187 7.80861H19.3479C19.708 7.80861 20 7.51662 20 7.15643V5.1999C20 4.47955 19.4161 3.89557 18.6957 3.89557zM8.04348 3.67818V3.89557H4.97539C4.16477 3.89557 3.5268 3.13986 3.72926 2.29588 3.81844 1.9242 4.08672 1.60736 4.43371 1.44697 4.9102 1.22674 5.43801 1.29744 5.8382 1.65967L8.04402 3.65896C8.04391 3.66541 8.04348 3.67174 8.04348 3.67818zM16.3005 2.71658C16.252 3.39443 15.6396 3.89564 14.9601 3.89564H11.9565V3.67826C11.9565 3.67057 11.9561 3.66295 11.956 3.65525 12.4557 3.20228 13.5397 2.21978 14.1276 1.68686 14.4618 1.384 14.9293 1.24264 15.3615 1.37154 15.9817 1.55654 16.3459 2.08396 16.3005 2.71658z" fill="#e31f1a"/><path d="M1.30432 9.11292V18.6782C1.30432 19.3985 1.88827 19.9825 2.60866 19.9825H8.69561V9.11292H1.30432z" fill="#e31f1a"/><path d="M11.3043 9.11292V19.9825H17.3913C18.1117 19.9825 18.6956 19.3985 18.6956 18.6782V9.11292H11.3043z" fill="#e31f1a"/></g><defs><clipPath id="clip0"><path d="M0 0h20v20H0z" fill="#fff"/></clipPath></defs></svg>