<svg width="30" height="28" viewBox="0 0 30 28" fill="none" xmlns="http://www.w3.org/2000/svg"><path d="M27.5769 3.26123C26.006 1.69032 23.9262.831725 21.7066.831725 19.487.831725 17.4009 1.69668 15.83 3.26759L15.0096 4.08802 14.1764 3.25487C12.6055 1.68396 10.5131.812645 8.29344.812645 6.08017.812645 3.9941 1.6776 2.42954 3.24215.858631 4.81306-.00632514 6.89913 348254e-10 9.11875 348254e-10 11.3384.871351 13.4181 2.44226 14.989L14.3863 26.933C14.5516 27.0984 14.7742 27.1874 14.9905 27.1874 15.2067 27.1874 15.4293 27.1047 15.5947 26.9394L27.5641 15.0144C29.1351 13.4435 30 11.3575 30 9.13783 30.0064 6.91821 29.1478 4.83214 27.5769 3.26123zM26.3557 13.7997 14.9905 25.1204 3.65066 13.7806C2.4041 12.5341 1.71723 10.8805 1.71723 9.11875 1.71723 7.35705 2.39774 5.70345 3.6443 4.46326 4.88449 3.22307 6.53808 2.53619 8.29344 2.53619 10.0551 2.53619 11.7151 3.22307 12.9617 4.46962L14.399 5.90697C14.7361 6.24405 15.2767 6.24405 15.6138 5.90697L17.0384 4.48234C18.2849 3.23579 19.9449 2.54891 21.7003 2.54891 23.4556 2.54891 25.1092 3.23579 26.3557 4.47598 27.6023 5.72253 28.2828 7.37612 28.2828 9.13783 28.2892 10.8995 27.6023 12.5531 26.3557 13.7997z" fill="#000"/></svg>