<svg width="173" height="54" viewBox="0 0 173 54" fill="none" xmlns="http://www.w3.org/2000/svg"><path d="M42.26 14.2C44.368 14.2 46.1927 14.5513 47.734 15.254 49.298 15.9567 50.4993 16.954 51.338 18.246 52.1767 19.538 52.596 21.068 52.596 22.836 52.596 24.5813 52.1767 26.1113 51.338 27.426 50.4993 28.718 49.298 29.7153 47.734 30.418 46.1927 31.098 44.368 31.438 42.26 31.438H37.466V38H31.958V14.2H42.26zM41.954 26.95C43.6087 26.95 44.8667 26.5987 45.728 25.896 46.5893 25.1707 47.02 24.1507 47.02 22.836 47.02 21.4987 46.5893 20.4787 45.728 19.776 44.8667 19.0507 43.6087 18.688 41.954 18.688H37.466V26.95H41.954zM67.9175 38.408C65.4468 38.408 63.2142 37.8753 61.2195 36.81 59.2475 35.7447 57.6948 34.2827 56.5615 32.424 55.4508 30.5427 54.8955 28.4347 54.8955 26.1 54.8955 23.7653 55.4508 21.6687 56.5615 19.81 57.6948 17.9287 59.2475 16.4553 61.2195 15.39 63.2142 14.3247 65.4468 13.792 67.9175 13.792 70.3882 13.792 72.6095 14.3247 74.5815 15.39 76.5535 16.4553 78.1062 17.9287 79.2395 19.81 80.3728 21.6687 80.9395 23.7653 80.9395 26.1 80.9395 28.4347 80.3728 30.5427 79.2395 32.424 78.1062 34.2827 76.5535 35.7447 74.5815 36.81 72.6095 37.8753 70.3882 38.408 67.9175 38.408zm0-4.692C69.3228 33.716 70.5922 33.3987 71.7255 32.764 72.8588 32.1067 73.7428 31.2 74.3775 30.044 75.0349 28.888 75.3635 27.5733 75.3635 26.1 75.3635 24.6267 75.0349 23.312 74.3775 22.156 73.7428 21 72.8588 20.1047 71.7255 19.47 70.5922 18.8127 69.3228 18.484 67.9175 18.484 66.5122 18.484 65.2428 18.8127 64.1095 19.47 62.9762 20.1047 62.0808 21 61.4235 22.156 60.7888 23.312 60.4715 24.6267 60.4715 26.1 60.4715 27.5733 60.7888 28.888 61.4235 30.044 62.0808 31.2 62.9762 32.1067 64.1095 32.764 65.2428 33.3987 66.5122 33.716 67.9175 33.716zM96.4366 38.408C94.0113 38.408 91.8126 37.8867 89.8406 36.844 87.8913 35.7787 86.3499 34.3167 85.2166 32.458 84.1059 30.5767 83.5506 28.4573 83.5506 26.1 83.5506 23.7427 84.1059 21.6347 85.2166 19.776 86.3499 17.8947 87.8913 16.4327 89.8406 15.39 91.8126 14.3247 94.0226 13.792 96.4706 13.792 98.5333 13.792 100.392 14.1547 102.047 14.88 103.724 15.6053 105.129 16.648 106.263 18.008L102.727 21.272C101.117 19.4133 99.1226 18.484 96.7426 18.484 95.2693 18.484 93.9546 18.8127 92.7986 19.47 91.6426 20.1047 90.7359 21 90.0786 22.156 89.4439 23.312 89.1266 24.6267 89.1266 26.1 89.1266 27.5733 89.4439 28.888 90.0786 30.044 90.7359 31.2 91.6426 32.1067 92.7986 32.764 93.9546 33.3987 95.2693 33.716 96.7426 33.716 99.1226 33.716 101.117 32.7753 102.727 30.894L106.263 34.158C105.129 35.5407 103.724 36.5947 102.047 37.32 100.369 38.0453 98.4993 38.408 96.4366 38.408z" fill="#000"/><path d="M10 17h2v3H10z" fill="#100f15"/><path d="M5.5 22C5.5 21.1716 6.17157 20.5 7 20.5H25C25.8284 20.5 26.5 21.1716 26.5 22v2.5H5.5V22z" fill="#e31f1a" stroke="#000"/><path d="M1.76938 32.5l3.55556-8H26.6751L30.2306 32.5H1.76938z" fill="#e31f1a" stroke="#000"/><rect x="6.5" y="12.5" width="9" height="5" rx="1.5" fill="#e31f1a" stroke="#000"/><path d="M1.5 32.5h29V36C30.5 36.8284 29.8284 37.5 29 37.5H3C2.17157 37.5 1.5 36.8284 1.5 36V32.5z" fill="#e31f1a" stroke="#000"/><path d="M19.5 17C19.5 16.7239 19.7239 16.5 20 16.5h4C24.2761 16.5 24.5 16.7239 24.5 17v5.5h-5V17z" fill="#fff" stroke="#000"/><path d="M7 26h2v2H7z" fill="#fff"/><path d="M6 29h2v2H6z" fill="#fff"/><path d="M10 29h2v2H10z" fill="#fff"/><path d="M14 29h2v2H14z" fill="#fff"/><path d="M18 29h9v2H18z" fill="#fff"/><path d="M11 26h2v2H11z" fill="#fff"/><path d="M15 26h2v2H15z" fill="#fff"/><path d="M19 26h2v2H19z" fill="#fff"/><path d="M23 26h2v2H23z" fill="#fff"/><rect x="10" y="14" width="4" height="2" rx="1" fill="#fff"/><path d="M105.37 21.854V31H102.718V24.03H98.91V31H96.275V21.854H105.37zM111.347 31.136C110.383 31.136 109.516 30.9377 108.746 30.541 107.986 30.133 107.391 29.572 106.961 28.858 106.53 28.144 106.315 27.3337 106.315 26.427 106.315 25.5203 106.53 24.71 106.961 23.996 107.391 23.282 107.986 22.7267 108.746 22.33 109.516 21.922 110.383 21.718 111.347 21.718 112.31 21.718 113.171 21.922 113.931 22.33 114.69 22.7267 115.285 23.282 115.716 23.996 116.146 24.71 116.362 25.5203 116.362 26.427 116.362 27.3337 116.146 28.144 115.716 28.858 115.285 29.572 114.69 30.133 113.931 30.541 113.171 30.9377 112.31 31.136 111.347 31.136zM111.347 28.96C112.027 28.96 112.582 28.7333 113.013 28.28 113.455 27.8153 113.676 27.1977 113.676 26.427 113.676 25.6563 113.455 25.0443 113.013 24.591 112.582 24.1263 112.027 23.894 111.347 23.894 110.667 23.894 110.106 24.1263 109.664 24.591 109.222 25.0443 109.001 25.6563 109.001 26.427 109.001 27.1977 109.222 27.8153 109.664 28.28 110.106 28.7333 110.667 28.96 111.347 28.96zM121.688 31.136C120.713 31.136 119.835 30.9377 119.053 30.541 118.282 30.133 117.676 29.572 117.234 28.858 116.803 28.144 116.588 27.3337 116.588 26.427 116.588 25.5203 116.803 24.71 117.234 23.996 117.676 23.282 118.282 22.7267 119.053 22.33 119.835 21.922 120.713 21.718 121.688 21.718 122.651 21.718 123.49 21.922 124.204 22.33 124.929 22.7267 125.456 23.299 125.785 24.047L123.728 25.152C123.252 24.3133 122.566 23.894 121.671 23.894 120.979 23.894 120.407 24.1207 119.954 24.574 119.5 25.0273 119.274 25.645 119.274 26.427 119.274 27.209 119.5 27.8267 119.954 28.28 120.407 28.7333 120.979 28.96 121.671 28.96 122.577 28.96 123.263 28.5407 123.728 27.702L125.785 28.824C125.456 29.5493 124.929 30.116 124.204 30.524 123.49 30.932 122.651 31.136 121.688 31.136zM134.197 24.03H131.103V31H128.468V24.03H125.374V21.854H134.197V24.03zM138.314 21.718C139.73 21.718 140.818 22.058 141.578 22.738 142.337 23.4067 142.717 24.421 142.717 25.781V31H140.235V29.861C139.736 30.711 138.807 31.136 137.447 31.136 136.744 31.136 136.132 31.017 135.611 30.779 135.101 30.541 134.71 30.2123 134.438 29.793 134.166 29.3737 134.03 28.8977 134.03 28.365 134.03 27.515 134.347 26.8463 134.982 26.359 135.628 25.8717 136.619 25.628 137.957 25.628H140.065C140.065 25.05 139.889 24.608 139.538 24.302 139.186 23.9847 138.659 23.826 137.957 23.826 137.469 23.826 136.988 23.9053 136.512 24.064 136.047 24.2113 135.65 24.4153 135.322 24.676L134.37 22.823C134.868 22.4717 135.463 22.1997 136.155 22.007 136.857 21.8143 137.577 21.718 138.314 21.718zM138.11 29.351C138.563 29.351 138.965 29.249 139.317 29.045 139.668 28.8297 139.917 28.518 140.065 28.11V27.175H138.246C137.158 27.175 136.614 27.532 136.614 28.246 136.614 28.586 136.744 28.858 137.005 29.062 137.277 29.2547 137.645 29.351 138.11 29.351zM151.158 26.223C152.234 26.5857 152.773 27.311 152.773 28.399 152.773 29.2263 152.461 29.8667 151.838 30.32 151.214 30.7733 150.285 31 149.05 31H144.171V21.854H148.846C149.99 21.854 150.886 22.0637 151.532 22.483 152.178 22.891 152.501 23.469 152.501 24.217 152.501 24.6703 152.382 25.0727 152.144 25.424 151.917 25.764 151.588 26.0303 151.158 26.223zM146.602 25.611H148.608C149.537 25.611 150.002 25.2823 150.002 24.625 150.002 23.979 149.537 23.656 148.608 23.656H146.602V25.611zM148.829 29.198C149.803 29.198 150.291 28.8637 150.291 28.195 150.291 27.8437 150.177 27.5887 149.951 27.43 149.724 27.26 149.367 27.175 148.88 27.175H146.602V29.198H148.829zM157.925 27.532H156.548V31H153.896V21.854H156.548V25.407H157.976L160.458 21.854H163.28L160.084 26.24 163.501 31H160.373L157.925 27.532zM167.34 21.718C168.757 21.718 169.845 22.058 170.604 22.738 171.363 23.4067 171.743 24.421 171.743 25.781V31H169.261V29.861C168.762 30.711 167.833 31.136 166.473 31.136 165.77 31.136 165.158 31.017 164.637 30.779 164.127 30.541 163.736 30.2123 163.464 29.793 163.192 29.3737 163.056 28.8977 163.056 28.365 163.056 27.515 163.373 26.8463 164.008 26.359 164.654 25.8717 165.646 25.628 166.983 25.628H169.091C169.091 25.05 168.915 24.608 168.564 24.302 168.213 23.9847 167.686 23.826 166.983 23.826 166.496 23.826 166.014 23.9053 165.538 24.064 165.073 24.2113 164.677 24.4153 164.348 24.676L163.396 22.823C163.895 22.4717 164.49 22.1997 165.181 22.007 165.884 21.8143 166.603 21.718 167.34 21.718zM167.136 29.351C167.589 29.351 167.992 29.249 168.343 29.045 168.694 28.8297 168.944 28.518 169.091 28.11V27.175H167.272C166.184 27.175 165.64 27.532 165.64 28.246 165.64 28.586 165.77 28.858 166.031 29.062 166.303 29.2547 166.671 29.351 167.136 29.351z" fill="#e31f1a"/><path d="M1 40.5H172z" stroke="#d0d0d0"/><path d="M5.782 45.9926H3.43V52H2.4696V45.9926H.1274V45.14H5.782V45.9926zM9.47438 52.0784C8.78185 52.0784 8.15791 51.9281 7.60258 51.6276 7.04725 51.3205 6.60951 50.8991 6.28938 50.3634 5.97578 49.8277 5.81898 49.2299 5.81898 48.57 5.81898 47.9101 5.97578 47.3123 6.28938 46.7766 6.60951 46.2409 7.04725 45.8227 7.60258 45.5222 8.15791 45.2151 8.78185 45.0616 9.47438 45.0616 10.1604 45.0616 10.781 45.2151 11.3364 45.5222 11.8917 45.8227 12.3262 46.2409 12.6398 46.7766 12.9534 47.3058 13.1102 47.9036 13.1102 48.57 13.1102 49.2364 12.9534 49.8375 12.6398 50.3732 12.3262 50.9024 11.8917 51.3205 11.3364 51.6276 10.781 51.9281 10.1604 52.0784 9.47438 52.0784zM9.47438 51.2062C9.97745 51.2062 10.4282 51.0919 10.8268 50.8632 11.2318 50.6345 11.5487 50.3209 11.7774 49.9224 12.0126 49.5173 12.1302 49.0665 12.1302 48.57 12.1302 48.0735 12.0126 47.6259 11.7774 47.2274 11.5487 46.8223 11.2318 46.5055 10.8268 46.2768 10.4282 46.0481 9.97745 45.9338 9.47438 45.9338 8.97131 45.9338 8.51398 46.0481 8.10238 46.2768 7.69731 46.5055 7.37718 46.8223 7.14198 47.2274 6.91331 47.6259 6.79898 48.0735 6.79898 48.57 6.79898 49.0665 6.91331 49.5173 7.14198 49.9224 7.37718 50.3209 7.69731 50.6345 8.10238 50.8632 8.51398 51.0919 8.97131 51.2062 9.47438 51.2062zM16.8798 45.14C17.7683 45.14 18.4674 45.3523 18.977 45.777 19.4866 46.2017 19.7414 46.7864 19.7414 47.5312 19.7414 48.276 19.4866 48.8607 18.977 49.2854 18.4674 49.7101 17.7683 49.9224 16.8798 49.9224H15.1844V52H14.2044V45.14h2.6754zM16.8504 49.0698C17.4711 49.0698 17.9447 48.9391 18.2714 48.6778 18.5981 48.4099 18.7614 48.0277 18.7614 47.5312 18.7614 47.0347 18.5981 46.6557 18.2714 46.3944 17.9447 46.1265 17.4711 45.9926 16.8504 45.9926H15.1844V49.0698H16.8504zM25.103 45.9926H21.575L21.5848 52H20.6146V45.14H25.1128L25.103 45.9926zM28.0159 52.0784C27.3234 52.0784 26.6994 51.9281 26.1441 51.6276 25.5888 51.3205 25.151 50.8991 24.8309 50.3634 24.5173 49.8277 24.3605 49.2299 24.3605 48.57 24.3605 47.9101 24.5173 47.3123 24.8309 46.7766 25.151 46.2409 25.5888 45.8227 26.1441 45.5222 26.6994 45.2151 27.3234 45.0616 28.0159 45.0616 28.7019 45.0616 29.3226 45.2151 29.8779 45.5222 30.4332 45.8227 30.8677 46.2409 31.1813 46.7766 31.4949 47.3058 31.6517 47.9036 31.6517 48.57 31.6517 49.2364 31.4949 49.8375 31.1813 50.3732 30.8677 50.9024 30.4332 51.3205 29.8779 51.6276 29.3226 51.9281 28.7019 52.0784 28.0159 52.0784zM28.0159 51.2062C28.519 51.2062 28.9698 51.0919 29.3683 50.8632 29.7734 50.6345 30.0902 50.3209 30.3189 49.9224 30.5541 49.5173 30.6717 49.0665 30.6717 48.57 30.6717 48.0735 30.5541 47.6259 30.3189 47.2274 30.0902 46.8223 29.7734 46.5055 29.3683 46.2768 28.9698 46.0481 28.519 45.9338 28.0159 45.9338 27.5128 45.9338 27.0555 46.0481 26.6439 46.2768 26.2388 46.5055 25.9187 46.8223 25.6835 47.2274 25.4548 47.6259 25.3405 48.0735 25.3405 48.57 25.3405 49.0665 25.4548 49.5173 25.6835 49.9224 25.9187 50.3209 26.2388 50.6345 26.6439 50.8632 27.0555 51.0919 27.5128 51.2062 28.0159 51.2062zM37.0187 48.4426C37.4826 48.5537 37.8321 48.7529 38.0673 49.0404 38.3091 49.3213 38.4299 49.6839 38.4299 50.1282 38.4299 50.7227 38.2111 51.1833 37.7733 51.51 37.3421 51.8367 36.7117 52 35.8819 52H32.7459V45.14H35.6957C36.4471 45.14 37.0318 45.2935 37.4499 45.6006 37.8746 45.9011 38.0869 46.3356 38.0869 46.904 38.0869 47.2764 37.9922 47.5933 37.8027 47.8546 37.6198 48.1159 37.3585 48.3119 37.0187 48.4426zM33.7161 48.1584H35.6271C36.1041 48.1584 36.4667 48.0637 36.7149 47.8742 36.9697 47.6847 37.0971 47.4071 37.0971 47.0412 37.0971 46.6753 36.9697 46.3977 36.7149 46.2082 36.4601 46.0122 36.0975 45.9142 35.6271 45.9142H33.7161V48.1584zM35.8623 51.2258C36.9142 51.2258 37.4401 50.8338 37.4401 50.0498 37.4401 49.6578 37.3062 49.3703 37.0383 49.1874 36.777 48.9979 36.385 48.9032 35.8623 48.9032H33.7161V51.2258H35.8623zM42.6642 52.0784C41.9717 52.0784 41.3478 51.9281 40.7924 51.6276 40.2371 51.3205 39.7994 50.8991 39.4792 50.3634 39.1656 49.8277 39.0088 49.2299 39.0088 48.57 39.0088 47.9101 39.1656 47.3123 39.4792 46.7766 39.7994 46.2409 40.2371 45.8227 40.7924 45.5222 41.3478 45.2151 41.9717 45.0616 42.6642 45.0616 43.3502 45.0616 43.9709 45.2151 44.5262 45.5222 45.0816 45.8227 45.516 46.2409 45.8296 46.7766 46.1432 47.3058 46.3 47.9036 46.3 48.57 46.3 49.2364 46.1432 49.8375 45.8296 50.3732 45.516 50.9024 45.0816 51.3205 44.5262 51.6276 43.9709 51.9281 43.3502 52.0784 42.6642 52.0784zM42.6642 51.2062C43.1673 51.2062 43.6181 51.0919 44.0166 50.8632 44.4217 50.6345 44.7386 50.3209 44.9672 49.9224 45.2024 49.5173 45.32 49.0665 45.32 48.57 45.32 48.0735 45.2024 47.6259 44.9672 47.2274 44.7386 46.8223 44.4217 46.5055 44.0166 46.2768 43.6181 46.0481 43.1673 45.9338 42.6642 45.9338 42.1612 45.9338 41.7038 46.0481 41.2922 46.2768 40.8872 46.5055 40.567 46.8223 40.3318 47.2274 40.1032 47.6259 39.9888 48.0735 39.9888 48.57 39.9888 49.0665 40.1032 49.5173 40.3318 49.9224 40.567 50.3209 40.8872 50.6345 41.2922 50.8632 41.7038 51.0919 42.1612 51.2062 42.6642 51.2062zM46.9516 48.9032H49.5878V49.7166H46.9516V48.9032zM53.8572 52.0784C53.1712 52.0784 52.5505 51.9281 51.9952 51.6276 51.4464 51.3205 51.0152 50.9024 50.7016 50.3732 50.388 49.8375 50.2312 49.2364 50.2312 48.57 50.2312 47.9036 50.388 47.3058 50.7016 46.7766 51.0152 46.2409 51.4497 45.8227 52.005 45.5222 52.5603 45.2151 53.181 45.0616 53.867 45.0616 54.4027 45.0616 54.8927 45.1531 55.337 45.336 55.7813 45.5124 56.1602 45.777 56.4738 46.1298L55.8368 46.7472C55.3207 46.2049 54.6771 45.9338 53.9062 45.9338 53.3966 45.9338 52.936 46.0481 52.5244 46.2768 52.1128 46.5055 51.7894 46.8223 51.5542 47.2274 51.3255 47.6259 51.2112 48.0735 51.2112 48.57 51.2112 49.0665 51.3255 49.5173 51.5542 49.9224 51.7894 50.3209 52.1128 50.6345 52.5244 50.8632 52.936 51.0919 53.3966 51.2062 53.9062 51.2062 54.6706 51.2062 55.3141 50.9318 55.8368 50.383L56.4738 51.0004C56.1602 51.3532 55.778 51.6211 55.3272 51.804 54.8829 51.9869 54.3929 52.0784 53.8572 52.0784zM62.3124 51.1474V52H57.334V45.14H62.1752V45.9926H58.314V48.0996H61.7538V48.9326H58.314V51.1474H62.3124zM66.0368 45.14C66.9253 45.14 67.6244 45.3523 68.134 45.777 68.6436 46.2017 68.8984 46.7864 68.8984 47.5312 68.8984 48.276 68.6436 48.8607 68.134 49.2854 67.6244 49.7101 66.9253 49.9224 66.0368 49.9224H64.3414V52H63.3614V45.14H66.0368zM66.0074 49.0698C66.628 49.0698 67.1017 48.9391 67.4284 48.6778 67.755 48.4099 67.9184 48.0277 67.9184 47.5312 67.9184 47.0347 67.755 46.6557 67.4284 46.3944 67.1017 46.1265 66.628 45.9926 66.0074 45.9926H64.3414V49.0698H66.0074zM74.0444 48.4426C74.5082 48.5537 74.8578 48.7529 75.093 49.0404 75.3347 49.3213 75.4556 49.6839 75.4556 50.1282 75.4556 50.7227 75.2367 51.1833 74.799 51.51 74.3678 51.8367 73.7373 52 72.9076 52H69.7716V45.14H72.7214C73.4727 45.14 74.0574 45.2935 74.4756 45.6006 74.9002 45.9011 75.1126 46.3356 75.1126 46.904 75.1126 47.2764 75.0178 47.5933 74.8284 47.8546 74.6454 48.1159 74.3841 48.3119 74.0444 48.4426zM70.7418 48.1584H72.6528C73.1297 48.1584 73.4923 48.0637 73.7406 47.8742 73.9954 47.6847 74.1228 47.4071 74.1228 47.0412 74.1228 46.6753 73.9954 46.3977 73.7406 46.2082 73.4858 46.0122 73.1232 45.9142 72.6528 45.9142H70.7418V48.1584zM72.888 51.2258C73.9398 51.2258 74.4658 50.8338 74.4658 50.0498 74.4658 49.6578 74.3318 49.3703 74.064 49.1874 73.8026 48.9979 73.4106 48.9032 72.888 48.9032H70.7418V51.2258H72.888zM76.6029 45.14H77.5731V50.432L81.6303 45.14H82.5319V52H81.5715V46.7178L77.5045 52H76.6029V45.14zM87.248 52.0784C86.562 52.0784 85.9414 51.9281 85.386 51.6276 84.8372 51.3205 84.406 50.9024 84.0924 50.3732 83.7788 49.8375 83.622 49.2364 83.622 48.57 83.622 47.9036 83.7788 47.3058 84.0924 46.7766 84.406 46.2409 84.8405 45.8227 85.3958 45.5222 85.9512 45.2151 86.5718 45.0616 87.2578 45.0616 87.7936 45.0616 88.2836 45.1531 88.7278 45.336 89.1721 45.5124 89.551 45.777 89.8646 46.1298L89.2276 46.7472C88.7115 46.2049 88.068 45.9338 87.297 45.9338 86.7874 45.9338 86.3268 46.0481 85.9152 46.2768 85.5036 46.5055 85.1802 46.8223 84.945 47.2274 84.7164 47.6259 84.602 48.0735 84.602 48.57 84.602 49.0665 84.7164 49.5173 84.945 49.9224 85.1802 50.3209 85.5036 50.6345 85.9152 50.8632 86.3268 51.0919 86.7874 51.2062 87.297 51.2062 88.0614 51.2062 88.705 50.9318 89.2276 50.383L89.8646 51.0004C89.551 51.3532 89.1688 51.6211 88.718 51.804 88.2738 51.9869 87.7838 52.0784 87.248 52.0784zM96.6244 45.14V52H95.6444V48.9424H91.7048V52H90.7248V45.14H91.7048V48.0898H95.6444V45.14H96.6244zM102.733 50.285H99.0873L98.3327 52H97.3233L100.43 45.14H101.4L104.516 52H103.487L102.733 50.285zM102.39 49.501 100.91 46.1396 99.4303 49.501H102.39zM109.912 45.14V52H108.952V50.0008H107.061C106.943 50.0008 106.855 49.9975 106.796 49.991L105.424 52H104.385L105.904 49.8244C105.414 49.6611 105.039 49.3899 104.777 49.011 104.516 48.6255 104.385 48.1584 104.385 47.6096 104.385 46.8321 104.634 46.2278 105.13 45.7966 105.633 45.3589 106.309 45.14 107.159 45.14h2.753zM105.375 47.5998C105.375 48.1094 105.522 48.5014 105.816 48.7758 106.117 49.0437 106.558 49.1776 107.139 49.1776H108.952V45.9926H107.198C106.61 45.9926 106.159 46.1298 105.845 46.4042 105.532 46.6786 105.375 47.0771 105.375 47.5998zM116.096 48.9816H114.665V52H113.705V45.14H114.665V48.1192H116.116L118.272 45.14H119.32L116.87 48.4622 119.438 52H118.321L116.096 48.9816zM123.02 52.0784C122.328 52.0784 121.704 51.9281 121.149 51.6276 120.593 51.3205 120.156 50.8991 119.835 50.3634 119.522 49.8277 119.365 49.2299 119.365 48.57 119.365 47.9101 119.522 47.3123 119.835 46.7766 120.156 46.2409 120.593 45.8227 121.149 45.5222 121.704 45.2151 122.328 45.0616 123.02 45.0616 123.706 45.0616 124.327 45.2151 124.882 45.5222 125.438 45.8227 125.872 46.2409 126.186 46.7766 126.499 47.3058 126.656 47.9036 126.656 48.57 126.656 49.2364 126.499 49.8375 126.186 50.3732 125.872 50.9024 125.438 51.3205 124.882 51.6276 124.327 51.9281 123.706 52.0784 123.02 52.0784zM123.02 51.2062C123.523 51.2062 123.974 51.0919 124.373 50.8632 124.778 50.6345 125.095 50.3209 125.323 49.9224 125.559 49.5173 125.676 49.0665 125.676 48.57 125.676 48.0735 125.559 47.6259 125.323 47.2274 125.095 46.8223 124.778 46.5055 124.373 46.2768 123.974 46.0481 123.523 45.9338 123.02 45.9338 122.517 45.9338 122.06 46.0481 121.648 46.2768 121.243 46.5055 120.923 46.8223 120.688 47.2274 120.459 47.6259 120.345 48.0735 120.345 48.57 120.345 49.0665 120.459 49.5173 120.688 49.9224 120.923 50.3209 121.243 50.6345 121.648 50.8632 122.06 51.0919 122.517 51.2062 123.02 51.2062zM134.111 52 134.101 47.002 131.621 51.167H131.171L128.691 47.0314V52H127.75V45.14H128.554L131.416 49.9616 134.238 45.14H135.042L135.051 52H134.111zM142.606 45.14V52H141.646V45.9926H137.667V52H136.697V45.14H142.606zM148.714 50.285H145.069L144.314 52H143.305L146.411 45.14H147.382L150.498 52H149.469L148.714 50.285zM148.371 49.501 146.892 46.1396 145.412 49.501H148.371zM157.092 45.14V52H156.112V48.9424H152.172V52H151.192V45.14H152.172V48.0898H156.112V45.14H157.092zM158.741 45.14H159.711V50.432L163.768 45.14H164.67V52H163.71V46.7178L159.643 52H158.741V45.14zM171.346 45.14V52H170.386V50.0008H168.494C168.377 50.0008 168.289 49.9975 168.23 49.991L166.858 52H165.819L167.338 49.8244C166.848 49.6611 166.472 49.3899 166.211 49.011 165.95 48.6255 165.819 48.1584 165.819 47.6096 165.819 46.8321 166.067 46.2278 166.564 45.7966 167.067 45.3589 167.743 45.14 168.592 45.14H171.346zM166.809 47.5998C166.809 48.1094 166.956 48.5014 167.25 48.7758 167.55 49.0437 167.991 49.1776 168.573 49.1776H170.386V45.9926H168.632C168.044 45.9926 167.593 46.1298 167.279 46.4042 166.966 46.6786 166.809 47.0771 166.809 47.5998z" fill="#000"/></svg>