<svg width="30" height="30" viewBox="0 0 30 30" fill="none" xmlns="http://www.w3.org/2000/svg"><g clip-path="url(#clip0)"><path d="M23.7095 18.584C23.0953 17.9445 22.3545 17.6026 21.5693 17.6026 20.7905 17.6026 20.0434 17.9382 19.4039 18.5777L17.4031 20.5722C17.2385 20.4835 17.0738 20.4012 16.9155 20.3189 16.6876 20.2049 16.4723 20.0973 16.2887 19.9833 14.4145 18.793 12.7113 17.2417 11.0777 15.2345 10.2862 14.2341 9.75438 13.392 9.36814 12.5372 9.88734 12.0624 10.3686 11.5685 10.8371 11.0936 11.0144 10.9163 11.1917 10.7327 11.369 10.5554 12.6986 9.22576 12.6986 7.50353 11.369 6.17388L9.64041 4.44532C9.44412 4.24904 9.24151 4.04642 9.05156 3.84381 8.67166 3.45124 8.27276 3.04601 7.8612 2.66611 7.24702 2.05827 6.51255 1.73535 5.74008 1.73535 4.96761 1.73535 4.22047 2.05827 3.5873 2.66611 3.58097 2.67244 3.58097 2.67244 3.57463 2.67878L1.42185 4.85055C.611396 5.66101.149181 6.64876.0478741 7.79479-.104087 9.64365.44044 11.3659.858332 12.4929 1.88407 15.2599 3.41634 17.8242 5.70209 20.5722 8.47537 23.8837 11.8122 26.4986 15.6239 28.3412 17.0802 29.0313 19.024 29.8481 21.1958 29.9874 21.3287 29.9938 21.468 30.0001 21.5947 30.0001 23.0573 30.0001 24.2856 29.4746 25.2481 28.4298 25.2544 28.4172 25.2671 28.4108 25.2734 28.3982 25.6026 27.9993 25.9825 27.6384 26.3814 27.2521 26.6537 26.9925 26.9323 26.7203 27.2046 26.4353 27.8314 25.7832 28.1606 25.0234 28.1606 24.2446 28.1606 23.4594 27.8251 22.706 27.1856 22.0728L23.7095 18.584zM25.9762 25.2513C25.9699 25.2513 25.9699 25.2576 25.9762 25.2513 25.7293 25.5172 25.476 25.7578 25.2037 26.0238 24.7922 26.4163 24.3743 26.8279 23.9817 27.2901 23.3422 27.9739 22.5887 28.2969 21.601 28.2969 21.506 28.2969 21.4047 28.2969 21.3097 28.2905 19.4292 28.1702 17.6817 27.4357 16.371 26.8089 12.7873 25.074 9.64041 22.611 7.02541 19.4895 4.8663 16.8871 3.42267 14.4811 2.46659 11.8977 1.87774 10.3211 1.66246 9.09279 1.75743 7.93409 1.82075 7.19328 2.10568 6.57911 2.63121 6.05358L4.79032 3.89446C5.10057 3.6032 5.42982 3.44491 5.75274 3.44491 6.15164 3.44491 6.47456 3.68552 6.67717 3.88813 6.6835 3.89446 6.68983 3.90079 6.69616 3.90713 7.0824 4.26803 7.44964 4.6416 7.83587 5.0405 8.03215 5.24312 8.23477 5.44573 8.43738 5.65468L10.1659 7.38323C10.8371 8.05439 10.8371 8.6749 10.1659 9.34606 9.98232 9.52968 9.80503 9.7133 9.62141 9.89059 9.08955 10.4351 8.58301 10.9417 8.03216 11.4355 8.01949 11.4482 8.00683 11.4545 8.0005 11.4672 7.45597 12.0117 7.55728 12.5436 7.67125 12.9045 7.67758 12.9235 7.68391 12.9425 7.69024 12.9615 8.13979 14.0505 8.77296 15.0763 9.73538 16.2983L9.74172 16.3046C11.4893 18.4574 13.3318 20.1353 15.3643 21.4206 15.6239 21.5852 15.8898 21.7182 16.1431 21.8448 16.371 21.9588 16.5863 22.0665 16.7699 22.1804 16.7952 22.1931 16.8206 22.2121 16.8459 22.2248 17.0612 22.3324 17.2638 22.383 17.4727 22.383 17.9983 22.383 18.3275 22.0538 18.4351 21.9462L20.6006 19.7807C20.8159 19.5654 21.1578 19.3058 21.5567 19.3058 21.9492 19.3058 22.2722 19.5528 22.4684 19.768 22.4748 19.7744 22.4748 19.7744 22.4811 19.7807L25.9699 23.2695C26.622 23.9153 26.622 24.5801 25.9762 25.2513z" fill="#787878"/><path d="M16.2127 7.13611C17.8716 7.4147 19.3786 8.19983 20.5816 9.40286 21.7846 10.6059 22.5634 12.1128 22.8484 13.7717 22.918 14.1896 23.2789 14.4809 23.6905 14.4809 23.7411 14.4809 23.7854 14.4746 23.8361 14.4682 24.3047 14.3922 24.6149 13.949 24.5389 13.4805 24.197 11.4733 23.2473 9.64346 21.7973 8.1935 20.3473 6.74354 18.5175 5.79379 16.5103 5.45187 16.0418 5.37589 15.6049 5.68615 15.5226 6.14836 15.4403 6.61058 15.7442 7.06013 16.2127 7.13611z" fill="#787878"/><path d="M29.9652 13.2336C29.4017 9.92848 27.8441 6.92092 25.4507 4.52754 23.0573 2.13415 20.0497.576553 16.7446.0130316 16.2824-.0692806 15.8455.247305 15.7632.709519 15.6872 1.17807 15.9975 1.61495 16.466 1.69727 19.4166 2.19747 22.1075 3.59678 24.2477 5.73056 26.3878 7.87068 27.7808 10.5617 28.281 13.5122 28.3506 13.9301 28.7115 14.2214 29.1231 14.2214 29.1737 14.2214 29.2181 14.215 29.2687 14.2087 29.7309 14.1391 30.0475 13.6958 29.9652 13.2336z" fill="#787878"/></g><defs><clipPath id="clip0"><path d="M0 0h30v30H0z" fill="#fff"/></clipPath></defs></svg>