<svg width="50" height="50" viewBox="0 0 50 50" fill="none" xmlns="http://www.w3.org/2000/svg"><g clip-path="url(#clip0)"><path d="M25.0041 50H25.0013C24.462 50 24.0248 49.5628 24.0248 49.0234 24.0248 48.4841 24.462 48.0469 25.0013 48.0469 25.5407 48.0469 25.9793 48.4841 25.9793 49.0234 25.9793 49.5628 25.5434 50 25.0041 50z" fill="#e31f1a"/><path d="M40.4356 36.0591V32.1653C40.4356 32.16 40.4356 32.1546 40.4355 32.1492 40.391 29.4407 39.3719 27.4367 37.32 26.0228 35.6117 24.8455 33.4617 24.2662 31.3825 23.7061 30.79 23.5464 30.2208 23.3931 29.6734 23.2295V21.163C31.9012 19.6575 33.3688 17.1081 33.3688 14.2222V13.1761C33.4822 13.0909 33.5913 12.9976 33.6945 12.8946 34.7895 11.7997 34.8844 10.0782 33.9806 8.87383V4.95713C33.9805 2.22373 31.7567.0 29.0234.0H20.9766C18.2433.0 16.0195 2.22373 16.0195 4.95713V8.87393C15.1157 10.0783 15.2107 11.7998 16.3067 12.8959 16.4096 12.9984 16.5184 13.0914 16.6312 13.1764V14.2222C16.6312 17.1076 18.0988 19.6566 20.3267 21.1622V23.2295C19.7793 23.3931 19.21 23.5465 18.6176 23.7061 16.5384 24.2662 14.3884 24.8455 12.6801 26.0228 10.6281 27.4367 9.60908 29.4407 9.56455 32.1492 9.56445 32.1546 9.56445 32.16 9.56445 32.1653V36.0591C9.10967 36.5184 8.82812 37.1496 8.82812 37.8456V40.6248C8.82812 42.0257 9.96777 43.1654 11.3687 43.1654H13.8018C13.9299 43.1654 14.0565 43.1588 14.1815 43.1468V47.6976C14.1815 48.9672 15.2132 50.0001 16.4812 50.0001H20.614C21.1533 50.0001 21.5905 49.5629 21.5905 49.0235 21.5905 48.4842 21.1533 48.047 20.614 48.047H16.4812C16.2934 48.047 16.1347 47.887 16.1347 47.6976V42.3958C17.1028 41.6793 17.7318 40.5295 17.7318 39.2353 17.7318 37.941 17.1027 36.7913 16.1347 36.0747V33.1369C16.1347 32.949 16.2934 32.7903 16.4812 32.7903H21.0381V38.7342C21.0381 39.0952 21.2373 39.4268 21.556 39.5963 21.6998 39.6729 21.8573 39.7107 22.0145 39.7107 22.2056 39.7107 22.396 39.6547 22.5603 39.544L25.0011 37.8995 27.4393 39.5438C27.7387 39.7458 28.1251 39.766 28.4438 39.5965 28.7626 39.427 28.9618 39.0954 28.9618 38.7343V32.7904H33.5187C33.708 32.7904 33.868 32.9491 33.868 33.137V36.0728C32.8983 36.7893 32.2681 37.9399 32.2681 39.2354 32.2681 40.5308 32.8983 41.6814 33.868 42.3979V47.6977C33.868 47.887 33.708 48.0471 33.5187 48.0471H29.3859C28.8466 48.0471 28.4094 48.4843 28.4094 49.0236 28.4094 49.563 28.8466 50.0002 29.3859 50.0002H33.5187C34.7882 50.0002 35.8211 48.9673 35.8211 47.6977V43.1472C35.9452 43.1591 36.0709 43.1656 36.1981 43.1656H38.6313C40.0321 43.1656 41.1718 42.026 41.1718 40.625V37.8458C41.172 37.1497 40.8904 36.5184 40.4356 36.0591zM17.9727 4.95713C17.9727 3.30068 19.3202 1.95312 20.9766 1.95312H29.0234C30.6798 1.95312 32.0273 3.30068 32.0273 4.95713v2.1875C29.9807 5.71318 27.5497 4.9418 25 4.9418 22.4503 4.9418 20.0193 5.71309 17.9727 7.14463V4.95713zM17.6866 11.5137C17.2485 11.0755 17.2485 10.3627 17.6865 9.92451L17.6867 9.92441C19.6402 7.9709 22.2375 6.89502 25 6.89502 27.7625 6.89502 30.3598 7.9709 32.3133 9.92441L32.3135 9.92451C32.7516 10.3627 32.7515 11.0756 32.3146 11.5125 31.8767 11.9489 31.1641 11.949 30.7272 11.5137 29.1973 9.98369 27.1639 9.14111 25.0016 9.14111 22.8393 9.14111 20.8059 9.98369 19.2771 11.5125 18.8382 11.9498 18.1243 11.9498 17.6866 11.5137zM18.5844 14.2222V13.7896C19.3373 13.7645 20.0829 13.4667 20.6568 12.8947 21.8179 11.7337 23.3607 11.0942 25.0014 11.0942 26.642 11.0942 28.185 11.7336 29.3472 12.8959 29.9197 13.4665 30.6638 13.7637 31.4156 13.789V14.2223C31.4156 17.7607 28.5382 20.6395 25.0014 20.6395 21.4631 20.6394 18.5844 17.7606 18.5844 14.2222zM27.7202 22.1364V23.9468C27.7202 25.446 26.5006 26.6657 25.0014 26.6657 23.5007 26.6657 22.2798 25.446 22.2798 23.9468V22.1357C23.1337 22.4303 24.0487 22.5925 25.0014 22.5925 25.953 22.5925 26.8671 22.4305 27.7202 22.1364zM11.3687 41.2123C11.0447 41.2123 10.7812 40.9487 10.7812 40.6248V37.8456C10.7812 37.5217 11.0447 37.2582 11.3687 37.2582H13.8018C14.8919 37.2582 15.7788 38.1451 15.7788 39.2353 15.7788 40.3254 14.8919 41.2123 13.8018 41.2123H11.3687zM27.0088 36.8978 25.5474 35.9122C25.2175 35.6896 24.7855 35.6896 24.4557 35.912L22.9911 36.8987V32.7904H27.0088V36.8978zM33.5187 30.8372H16.4812C15.2132 30.8372 14.1815 31.8688 14.1815 33.1369V35.3237C14.0565 35.3117 13.9299 35.3051 13.8018 35.3051H11.5175V32.1738C11.553 30.1177 12.2747 28.674 13.7883 27.631 15.2204 26.6441 17.2057 26.1092 19.1256 25.5919 19.5808 25.4692 20.0437 25.3437 20.5022 25.2119 21.0559 27.175 22.8625 28.6187 25.0013 28.6187 27.1389 28.6187 28.9444 27.1751 29.4977 25.212 29.9561 25.3437 30.4191 25.4692 30.8742 25.5919 32.7941 26.1092 34.7795 26.644 36.2115 27.631 37.7252 28.674 38.4469 30.1176 38.4823 32.1738V35.305H36.1982C36.071 35.305 35.9453 35.3116 35.8212 35.3234V33.1369C35.8213 31.8688 34.7884 30.8372 33.5187 30.8372zM39.2188 40.6249C39.2188 40.9488 38.9554 41.2124 38.6314 41.2124H36.1982C35.8823 41.2124 35.5846 41.136 35.3195 41.0037 35.2963 40.9907 35.2722 40.9791 35.2478 40.968 34.6365 40.6312 34.2213 39.9811 34.2213 39.2354 34.2213 38.1452 35.1082 37.2583 36.1982 37.2583H38.6313C38.9553 37.2583 39.2187 37.5218 39.2187 37.8457V40.6249H39.2188z" fill="#e31f1a"/></g><defs><clipPath id="clip0"><path d="M0 0h50v50H0z" fill="#fff"/></clipPath></defs></svg>