<svg width="18" height="18" viewBox="0 0 18 18" fill="none" xmlns="http://www.w3.org/2000/svg"><path d="M17.8426 17.082 13.4683 12.7078C14.6417 11.3588 15.3521 9.59867 15.3521 7.67494 15.3521 3.44035 11.9077.0 7.67714.0 3.44255.0.00219727 3.44435.00219727 7.67494.00219727 11.9055 3.44654 15.3499 7.67714 15.3499 9.60087 15.3499 11.361 14.6395 12.71 13.4661L17.0842 17.8404C17.188 17.9441 17.3277 18 17.4634 18 17.5991 18 17.7388 17.9481 17.8426 17.8404 18.0501 17.6328 18.0501 17.2896 17.8426 17.082zM1.07581 7.67494C1.07581 4.03503 4.03723 1.07761 7.67315 1.07761 11.3131 1.07761 14.2705 4.03902 14.2705 7.67494 14.2705 11.3109 11.3131 14.2763 7.67315 14.2763 4.03723 14.2763 1.07581 11.3149 1.07581 7.67494z" fill="#9c9fa6"/></svg>